<?xml version="1.0" encoding="iso-8859-1"?>
<!-- Uploaded to: SVG Repo, www.svgrepo.com, Generator: SVG Repo Mixer Tools -->
<svg fill="#000000" height="800px" width="800px" version="1.1" id="Layer_1" xmlns="http://www.w3.org/2000/svg" xmlns:xlink="http://www.w3.org/1999/xlink" 
	 viewBox="0 0 512 512" xml:space="preserve">
<g>
	<g>
		<path d="M496,324.362h-31.702v-60.01c0-8.836-7.164-16-16-16H271.996v-60.714h127.109c8.836,0,16-7.164,16-16V76.235
			c0-8.836-7.164-16-16-16h-286.21c-8.836,0-16,7.164-16,16v95.404c0,8.836,7.164,16,16,16h127.101v60.714H63.702
			c-8.836,0-16,7.164-16,16v60.01H16c-8.836,0-16,7.164-16,16v95.404c0,8.836,7.164,16,16,16h95.404c8.836,0,16-7.164,16-16v-95.404
			c0-8.836-7.164-16-16-16H79.702v-44.01h160.293v44.01h-31.698c-8.836,0-16,7.164-16,16v95.404c0,8.836,7.164,16,16,16h95.404
			c8.836,0,16-7.164,16-16v-95.404c0-8.836-7.164-16-16-16h-31.707v-44.01h160.302v44.01h-31.702c-8.836,0-16,7.164-16,16v95.404
			c0,8.836,7.164,16,16,16H496c8.836,0,16-7.164,16-16v-95.404C512,331.525,504.836,324.362,496,324.362z M95.404,356.362v63.404H32
			v-63.404H95.404z M287.702,356.362v63.404h-63.404v-63.404H287.702z M128.895,155.638V92.235h254.21v63.404H128.895z M480,419.765
			h-63.404v-63.404H480V419.765z"/>
	</g>
</g>
</svg>